<svg xmlns="http://www.w3.org/2000/svg" xmlns:xlink="http://www.w3.org/1999/xlink" width="180" zoomAndPan="magnify" viewBox="0 0 135 135.000003" height="180" preserveAspectRatio="xMidYMid meet" version="1.0"><defs><clipPath id="e9a63d1e82"><path d="M 22 3 L 128.855469 3 L 128.855469 132.847656 L 22 132.847656 Z M 22 3 " clip-rule="nonzero"/></clipPath><clipPath id="11990d2ee0"><path d="M 6.015625 7 L 44 7 L 44 45 L 6.015625 45 Z M 6.015625 7 " clip-rule="nonzero"/></clipPath><clipPath id="0c4e3901b6"><path d="M 14 1.074219 L 122 1.074219 L 122 131 L 14 131 Z M 14 1.074219 " clip-rule="nonzero"/></clipPath></defs><g clip-path="url(#e9a63d1e82)"><path fill="#4ba2db" d="M 27.046875 128.820312 L 27.285156 128.894531 C 27.25 128.886719 27.144531 128.871094 27.046875 128.820312 Z M 125.300781 13.097656 C 126.84375 11.101562 129.933594 7.660156 128.476562 4.925781 C 126.707031 1.605469 120.929688 4.871094 118.609375 6.085938 C 118.519531 6.125 118.429688 6.167969 118.34375 6.222656 C 118.238281 6.277344 118.140625 6.339844 118.054688 6.402344 C 95.019531 20.519531 73.804688 37.871094 56.679688 58.859375 C 45.332031 72.765625 35.828125 88.191406 29.144531 104.875 C 26.226562 112.167969 23.636719 119.847656 22.488281 127.648438 C 22.238281 129.332031 22.933594 130.589844 24.304688 131.699219 C 26.800781 133.710938 29.664062 132.734375 31.574219 130.429688 C 32.667969 129.113281 32.675781 127.328125 33.019531 125.695312 C 33.355469 124.078125 33.773438 122.476562 34.230469 120.886719 C 37.332031 110.1875 43.289062 100.464844 50.660156 92.179688 C 54.222656 88.171875 58.144531 84.476562 62.335938 81.132812 C 63.285156 80.375 64.453125 79.488281 65.785156 78.554688 C 66.101562 78.332031 66.425781 78.113281 66.753906 77.898438 C 71.042969 78.269531 75.589844 77.628906 79.707031 76.53125 C 88.738281 74.125 96.285156 68.132812 100.097656 59.523438 C 100.71875 58.121094 99.683594 55.941406 97.863281 56.617188 C 95.144531 57.628906 92.097656 58.191406 89.640625 56.667969 C 89.558594 56.621094 89.480469 56.570312 89.40625 56.519531 C 93.738281 54.84375 97.972656 52.84375 102.035156 50.636719 C 105.9375 48.519531 109.707031 46.089844 113.066406 43.175781 C 116.03125 40.59375 118.773438 37.347656 119.804688 33.476562 C 120.230469 31.878906 118.386719 30.238281 116.898438 31.242188 C 114.253906 33.015625 110.816406 33.269531 107.71875 33.339844 C 107.234375 33.351562 106.75 33.355469 106.261719 33.351562 C 108.082031 31.585938 109.882812 29.804688 111.667969 28.011719 C 116.410156 23.25 121.183594 18.417969 125.300781 13.097656 " fill-opacity="1" fill-rule="nonzero"/></g><g clip-path="url(#11990d2ee0)"><path fill="#ffffff" d="M 10.09375 42.890625 L 10.09375 20.167969 C 10.09375 18.011719 9.988281 16.105469 11.207031 14.175781 C 12.675781 11.84375 15.289062 11.589844 17.746094 11.589844 L 41.386719 11.589844 C 44.015625 11.589844 44.015625 7.511719 41.386719 7.511719 L 18.671875 7.511719 C 16.554688 7.511719 14.515625 7.445312 12.492188 8.226562 C 8.609375 9.71875 6.015625 13.59375 6.015625 17.738281 L 6.015625 42.890625 C 6.015625 45.519531 10.09375 45.519531 10.09375 42.890625 " fill-opacity="1" fill-rule="nonzero"/></g><path fill="#ffffff" d="M 121.511719 91.484375 L 121.511719 114.207031 C 121.511719 116.359375 121.609375 118.269531 120.394531 120.203125 C 118.925781 122.53125 116.3125 122.789062 113.851562 122.789062 L 90.214844 122.789062 C 87.585938 122.789062 87.585938 126.863281 90.214844 126.863281 L 112.929688 126.863281 C 115.046875 126.863281 117.085938 126.929688 119.109375 126.152344 C 122.992188 124.65625 125.585938 120.785156 125.585938 116.636719 L 125.585938 91.484375 C 125.585938 88.851562 121.511719 88.851562 121.511719 91.484375 " fill-opacity="1" fill-rule="nonzero"/><g clip-path="url(#0c4e3901b6)"><path fill="#ffffff" d="M 110.691406 3.871094 C 87.542969 18.023438 66.222656 35.433594 49.027344 56.503906 C 37.679688 70.414062 28.175781 85.839844 21.492188 102.523438 C 18.574219 109.8125 15.984375 117.496094 14.832031 125.296875 C 14.585938 126.980469 15.28125 128.238281 16.652344 129.34375 C 19.148438 131.359375 22.011719 130.382812 23.921875 128.078125 C 25.015625 126.761719 25.023438 124.976562 25.367188 123.34375 C 25.703125 121.726562 26.117188 120.125 26.578125 118.535156 C 29.679688 107.835938 35.636719 98.109375 43.007812 89.824219 C 46.570312 85.820312 50.492188 82.125 54.683594 78.78125 C 55.632812 78.023438 56.800781 77.136719 58.132812 76.203125 C 58.613281 75.871094 59.089844 75.539062 59.585938 75.230469 C 59.25 75.320312 58.917969 75.410156 58.585938 75.5 C 63.027344 75.96875 67.769531 75.316406 72.054688 74.179688 C 81.085938 71.773438 88.632812 65.78125 92.445312 57.171875 C 93.066406 55.769531 92.03125 53.585938 90.210938 54.261719 C 87.492188 55.277344 84.445312 55.839844 81.988281 54.316406 C 81.121094 53.785156 80.605469 53.257812 80.164062 52.28125 C 79.769531 53.253906 79.375 54.222656 78.980469 55.191406 C 84.277344 53.339844 89.457031 50.960938 94.382812 48.285156 C 98.285156 46.164062 102.054688 43.738281 105.414062 40.820312 C 108.378906 38.242188 111.121094 34.996094 112.152344 31.125 C 112.578125 29.527344 110.734375 27.886719 109.246094 28.890625 C 106.601562 30.664062 103.164062 30.917969 100.066406 30.988281 C 98.046875 31.035156 95.996094 30.957031 93.988281 30.703125 C 94.457031 31.832031 94.921875 32.957031 95.386719 34.082031 C 98.3125 31.328125 101.179688 28.507812 104.015625 25.660156 C 108.753906 20.898438 113.53125 16.066406 117.648438 10.746094 C 119.191406 8.75 122.28125 5.308594 120.824219 2.574219 C 118.988281 -0.878906 112.808594 2.792969 110.691406 3.871094 C 108.414062 5.03125 110.417969 8.449219 112.6875 7.292969 C 113.480469 6.886719 114.277344 6.5 115.085938 6.132812 C 115.601562 5.902344 115.96875 5.75 116.78125 5.476562 C 117.226562 5.328125 117.675781 5.207031 118.140625 5.128906 C 117.417969 5.246094 118.011719 5.152344 118.203125 5.152344 C 118.613281 5.152344 117.640625 4.988281 118.179688 5.160156 C 117.96875 5.09375 117.609375 4.832031 117.636719 4.863281 C 117.234375 4.445312 117.332031 4.4375 117.429688 4.613281 C 117.144531 4.078125 117.242188 4.128906 117.289062 4.324219 C 117.296875 4.339844 117.273438 3.703125 117.238281 4.183594 C 117.296875 3.390625 117.261719 3.972656 117.1875 4.207031 C 117.140625 4.371094 116.882812 4.953125 117.171875 4.296875 C 117.089844 4.480469 117 4.65625 116.910156 4.835938 C 116.667969 5.296875 116.390625 5.738281 116.105469 6.171875 C 115.789062 6.652344 115.457031 7.121094 115.117188 7.585938 C 114.617188 8.257812 114.636719 8.230469 114.007812 9.011719 C 113.011719 10.242188 111.976562 11.441406 110.925781 12.628906 C 108.585938 15.269531 106.148438 17.828125 103.6875 20.355469 C 100.058594 24.070312 96.367188 27.722656 92.589844 31.285156 C 91.195312 32.597656 92.410156 34.464844 93.988281 34.664062 C 96.097656 34.933594 98.25 34.992188 100.375 34.941406 C 104.03125 34.855469 108.132812 34.398438 111.242188 32.308594 C 110.273438 31.5625 109.304688 30.816406 108.335938 30.074219 C 107.480469 33.273438 104.96875 35.972656 102.402344 38.203125 C 99.230469 40.960938 95.5625 43.15625 91.878906 45.140625 C 87.226562 47.644531 82.792969 49.671875 77.929688 51.371094 C 76.636719 51.824219 76.199219 53.070312 76.746094 54.28125 C 79.242188 59.792969 86.433594 59.882812 91.261719 58.085938 C 90.519531 57.113281 89.773438 56.144531 89.027344 55.175781 C 86.886719 60.011719 83.585938 64.074219 79.089844 66.902344 C 75.515625 69.144531 71.460938 70.457031 67.320312 71.15625 C 65.042969 71.542969 62.15625 71.730469 59.535156 71.605469 C 58.863281 71.574219 58.203125 71.421875 57.582031 71.8125 C 57.265625 72.011719 56.960938 72.214844 56.65625 72.425781 C 42.300781 82.195312 30.398438 96.625 24.28125 112.902344 C 22.910156 116.566406 21.878906 120.355469 21.171875 124.203125 C 21.003906 125.125 20.929688 125.738281 20.113281 126.324219 C 19.984375 126.417969 19.589844 126.546875 19.625 126.546875 C 19.695312 126.542969 19.535156 126.539062 19.398438 126.46875 C 19.214844 126.367188 18.753906 125.871094 18.75 125.863281 C 18.617188 125.675781 18.492188 125.480469 18.390625 125.28125 C 18.480469 125.613281 18.570312 125.945312 18.660156 126.277344 C 18.710938 125.847656 18.5625 126.980469 18.636719 126.460938 C 18.683594 126.144531 18.734375 125.824219 18.785156 125.507812 C 18.992188 124.292969 19.238281 123.089844 19.507812 121.890625 C 20.507812 117.40625 21.851562 113 23.386719 108.675781 C 25.769531 101.957031 28.519531 95.820312 31.875 89.414062 C 36.242188 81.070312 41.332031 73.113281 46.949219 65.5625 C 62.359375 44.847656 82 27.457031 103.421875 13.191406 C 106.472656 11.160156 109.566406 9.199219 112.691406 7.292969 C 114.863281 5.960938 112.875 2.535156 110.691406 3.871094 " fill-opacity="1" fill-rule="nonzero"/></g></svg>