<svg xmlns="http://www.w3.org/2000/svg" xmlns:xlink="http://www.w3.org/1999/xlink" width="190" zoomAndPan="magnify" viewBox="0 0 142.5 30.000001" height="40" preserveAspectRatio="xMidYMid meet" version="1.0"><defs><g/><clipPath id="7e00bf85b9"><path d="M 10 1 L 32.683594 1 L 32.683594 27.914062 L 10 27.914062 Z M 10 1 " clip-rule="nonzero"/></clipPath><clipPath id="9bc09d3b9f"><path d="M 7.191406 2 L 15 2 L 15 10 L 7.191406 10 Z M 7.191406 2 " clip-rule="nonzero"/></clipPath><clipPath id="91c733ac67"><path d="M 24 19 L 32.683594 19 L 32.683594 27 L 24 27 Z M 24 19 " clip-rule="nonzero"/></clipPath><clipPath id="f813b2d6ba"><path d="M 9 0.964844 L 32 0.964844 L 32 27.914062 L 9 27.914062 Z M 9 0.964844 " clip-rule="nonzero"/></clipPath></defs><g clip-path="url(#7e00bf85b9)"><path fill="#50ace4" d="M 11.558594 27.085938 L 11.605469 27.101562 C 11.597656 27.101562 11.578125 27.097656 11.558594 27.085938 Z M 31.945312 3.429688 C 32.265625 3.019531 32.910156 2.316406 32.605469 1.757812 C 32.238281 1.078125 31.039062 1.746094 30.558594 1.996094 C 30.539062 2.003906 30.519531 2.011719 30.503906 2.023438 C 30.480469 2.035156 30.460938 2.046875 30.445312 2.058594 C 25.664062 4.945312 21.261719 8.492188 17.707031 12.785156 C 15.351562 15.628906 13.378906 18.78125 11.992188 22.191406 C 11.386719 23.683594 10.847656 25.253906 10.609375 26.847656 C 10.558594 27.191406 10.703125 27.449219 10.988281 27.675781 C 11.507812 28.089844 12.101562 27.886719 12.496094 27.417969 C 12.722656 27.148438 12.726562 26.78125 12.796875 26.449219 C 12.867188 26.117188 12.953125 25.789062 13.046875 25.464844 C 13.691406 23.277344 14.929688 21.289062 16.457031 19.597656 C 17.195312 18.777344 18.011719 18.023438 18.878906 17.339844 C 19.078125 17.183594 19.320312 17.003906 19.597656 16.8125 C 19.660156 16.765625 19.730469 16.722656 19.796875 16.675781 C 20.6875 16.753906 21.628906 16.621094 22.484375 16.398438 C 24.359375 15.90625 25.925781 14.679688 26.71875 12.921875 C 26.847656 12.632812 26.628906 12.1875 26.253906 12.328125 C 25.6875 12.53125 25.054688 12.648438 24.546875 12.335938 C 24.53125 12.328125 24.511719 12.316406 24.496094 12.304688 C 25.398438 11.964844 26.277344 11.554688 27.121094 11.105469 C 27.929688 10.671875 28.710938 10.175781 29.40625 9.578125 C 30.023438 9.050781 30.59375 8.386719 30.804688 7.59375 C 30.894531 7.269531 30.511719 6.933594 30.203125 7.136719 C 29.65625 7.5 28.941406 7.550781 28.296875 7.566406 C 28.199219 7.570312 28.097656 7.570312 27.996094 7.570312 C 28.375 7.207031 28.746094 6.84375 29.117188 6.476562 C 30.101562 5.503906 31.09375 4.515625 31.945312 3.429688 " fill-opacity="1" fill-rule="nonzero"/></g><g clip-path="url(#9bc09d3b9f)"><path fill="#0c0d0e" d="M 8.039062 9.519531 L 8.039062 4.875 C 8.039062 4.433594 8.015625 4.042969 8.269531 3.648438 C 8.574219 3.171875 9.117188 3.121094 9.628906 3.121094 L 14.53125 3.121094 C 15.078125 3.121094 15.078125 2.285156 14.53125 2.285156 L 9.820312 2.285156 C 9.378906 2.285156 8.957031 2.273438 8.535156 2.433594 C 7.730469 2.738281 7.191406 3.53125 7.191406 4.378906 L 7.191406 9.519531 C 7.191406 10.058594 8.039062 10.058594 8.039062 9.519531 " fill-opacity="1" fill-rule="nonzero"/></g><g clip-path="url(#91c733ac67)"><path fill="#0c0d0e" d="M 31.160156 19.453125 L 31.160156 24.101562 C 31.160156 24.539062 31.179688 24.929688 30.929688 25.324219 C 30.625 25.800781 30.082031 25.855469 29.570312 25.855469 L 24.667969 25.855469 C 24.121094 25.855469 24.121094 26.6875 24.667969 26.6875 L 29.378906 26.6875 C 29.820312 26.6875 30.242188 26.703125 30.660156 26.542969 C 31.46875 26.238281 32.007812 25.445312 32.007812 24.597656 L 32.007812 19.453125 C 32.007812 18.917969 31.160156 18.917969 31.160156 19.453125 " fill-opacity="1" fill-rule="nonzero"/></g><g clip-path="url(#f813b2d6ba)"><path fill="#0c0d0e" d="M 28.914062 1.542969 C 24.109375 4.4375 19.6875 7.996094 16.117188 12.304688 C 13.761719 15.148438 11.792969 18.300781 10.402344 21.710938 C 9.796875 23.203125 9.261719 24.773438 9.023438 26.367188 C 8.972656 26.710938 9.117188 26.96875 9.398438 27.195312 C 9.917969 27.605469 10.511719 27.40625 10.910156 26.9375 C 11.136719 26.667969 11.136719 26.300781 11.207031 25.96875 C 11.277344 25.636719 11.363281 25.308594 11.460938 24.984375 C 12.101562 22.796875 13.339844 20.808594 14.871094 19.117188 C 15.609375 18.296875 16.421875 17.539062 17.292969 16.859375 C 17.488281 16.703125 17.730469 16.523438 18.007812 16.332031 C 18.105469 16.261719 18.207031 16.195312 18.308594 16.132812 C 18.238281 16.148438 18.171875 16.167969 18.101562 16.1875 C 19.023438 16.28125 20.007812 16.148438 20.898438 15.917969 C 22.769531 15.425781 24.335938 14.199219 25.128906 12.441406 C 25.257812 12.152344 25.042969 11.707031 24.664062 11.84375 C 24.101562 12.050781 23.46875 12.167969 22.957031 11.855469 C 22.777344 11.746094 22.671875 11.640625 22.582031 11.441406 C 22.5 11.636719 22.417969 11.835938 22.335938 12.035156 C 23.433594 11.65625 24.507812 11.167969 25.53125 10.621094 C 26.339844 10.1875 27.121094 9.695312 27.820312 9.097656 C 28.433594 8.570312 29.003906 7.90625 29.21875 7.113281 C 29.304688 6.789062 28.925781 6.453125 28.617188 6.65625 C 28.066406 7.019531 27.351562 7.070312 26.710938 7.085938 C 26.292969 7.097656 25.867188 7.082031 25.449219 7.027344 C 25.546875 7.257812 25.640625 7.488281 25.738281 7.71875 C 26.347656 7.15625 26.941406 6.578125 27.53125 5.996094 C 28.511719 5.023438 29.503906 4.035156 30.359375 2.949219 C 30.679688 2.539062 31.320312 1.835938 31.019531 1.277344 C 30.636719 0.570312 29.355469 1.320312 28.914062 1.542969 C 28.441406 1.78125 28.859375 2.476562 29.328125 2.242188 C 29.492188 2.160156 29.660156 2.078125 29.828125 2.003906 C 29.933594 1.957031 30.011719 1.925781 30.179688 1.871094 C 30.269531 1.839844 30.363281 1.816406 30.460938 1.800781 C 30.3125 1.824219 30.433594 1.804688 30.472656 1.804688 C 30.558594 1.804688 30.359375 1.769531 30.46875 1.804688 C 30.425781 1.792969 30.351562 1.738281 30.355469 1.746094 C 30.273438 1.660156 30.292969 1.660156 30.3125 1.695312 C 30.253906 1.585938 30.273438 1.59375 30.285156 1.632812 C 30.285156 1.636719 30.28125 1.507812 30.273438 1.605469 C 30.285156 1.445312 30.277344 1.5625 30.265625 1.609375 C 30.253906 1.644531 30.199219 1.765625 30.261719 1.628906 C 30.242188 1.667969 30.226562 1.703125 30.207031 1.738281 C 30.15625 1.832031 30.097656 1.925781 30.039062 2.011719 C 29.972656 2.109375 29.902344 2.207031 29.832031 2.300781 C 29.730469 2.441406 29.734375 2.433594 29.605469 2.59375 C 29.398438 2.84375 29.183594 3.089844 28.964844 3.332031 C 28.476562 3.871094 27.972656 4.394531 27.460938 4.914062 C 26.710938 5.671875 25.941406 6.417969 25.160156 7.148438 C 24.871094 7.414062 25.121094 7.796875 25.449219 7.839844 C 25.886719 7.894531 26.332031 7.90625 26.773438 7.894531 C 27.53125 7.878906 28.382812 7.785156 29.03125 7.355469 C 28.828125 7.203125 28.628906 7.050781 28.425781 6.898438 C 28.25 7.554688 27.726562 8.105469 27.195312 8.5625 C 26.535156 9.125 25.777344 9.574219 25.011719 9.980469 C 24.046875 10.492188 23.125 10.90625 22.117188 11.253906 C 21.847656 11.347656 21.757812 11.601562 21.871094 11.847656 C 22.390625 12.976562 23.882812 12.992188 24.882812 12.625 C 24.730469 12.425781 24.574219 12.230469 24.417969 12.03125 C 23.976562 13.019531 23.289062 13.851562 22.355469 14.429688 C 21.617188 14.886719 20.773438 15.15625 19.914062 15.300781 C 19.441406 15.378906 18.84375 15.414062 18.296875 15.390625 C 18.160156 15.382812 18.023438 15.351562 17.894531 15.433594 C 17.828125 15.472656 17.765625 15.515625 17.703125 15.558594 C 14.722656 17.554688 12.253906 20.503906 10.984375 23.832031 C 10.699219 24.582031 10.484375 25.355469 10.339844 26.144531 C 10.304688 26.332031 10.289062 26.457031 10.117188 26.578125 C 10.089844 26.597656 10.007812 26.625 10.015625 26.621094 C 10.03125 26.621094 9.996094 26.621094 9.96875 26.605469 C 9.929688 26.585938 9.835938 26.484375 9.835938 26.484375 C 9.808594 26.445312 9.78125 26.40625 9.761719 26.363281 C 9.777344 26.433594 9.796875 26.5 9.816406 26.566406 C 9.828125 26.480469 9.796875 26.710938 9.8125 26.605469 C 9.820312 26.539062 9.832031 26.476562 9.84375 26.410156 C 9.886719 26.164062 9.9375 25.917969 9.992188 25.671875 C 10.199219 24.753906 10.480469 23.855469 10.796875 22.96875 C 11.292969 21.597656 11.863281 20.339844 12.558594 19.03125 C 13.464844 17.324219 14.519531 15.699219 15.6875 14.15625 C 18.886719 9.921875 22.960938 6.363281 27.40625 3.449219 C 28.039062 3.03125 28.679688 2.632812 29.332031 2.242188 C 29.78125 1.96875 29.367188 1.269531 28.914062 1.542969 " fill-opacity="1" fill-rule="nonzero"/></g><g fill="#444446" fill-opacity="0.4"><g transform="translate(37.034543, 13.850842)"><g><path d="M 7.546875 -4.640625 L 7.546875 -6.953125 L 3.570312 -6.953125 L 3.570312 -9.246094 L 7.71875 -9.246094 L 7.71875 -11.558594 L 1.019531 -11.558594 L 1.019531 0 L 3.570312 0 L 3.570312 -4.640625 Z M 7.546875 -4.640625 "/></g></g></g><g fill="#444446" fill-opacity="0.4"><g transform="translate(46.006164, 13.850842)"><g><path d="M 7.308594 -4.421875 L 4.386719 -4.421875 L 5.847656 -8.535156 Z M 11.628906 0 L 6.9375 -11.558594 L 4.777344 -11.558594 L 0.0859375 0 L 2.820312 0 L 3.65625 -2.328125 L 8.058594 -2.328125 L 8.890625 0 Z M 11.628906 0 "/></g></g></g><g fill="#444446" fill-opacity="0.4"><g transform="translate(58.121141, 13.850842)"><g><path d="M 3.570312 -5.167969 L 7.226562 0 L 10.660156 0 L 6.050781 -5.78125 L 10.488281 -11.558594 L 7.226562 -11.558594 L 3.570312 -6.390625 L 3.570312 -11.558594 L 1.019531 -11.558594 L 1.019531 0 L 3.570312 0 Z M 3.570312 -5.167969 "/></g></g></g><g fill="#444446" fill-opacity="0.4"><g transform="translate(69.012758, 13.850842)"><g><path d="M 7.71875 -2.3125 L 3.570312 -2.3125 L 3.570312 -4.640625 L 7.546875 -4.640625 L 7.546875 -6.953125 L 3.570312 -6.953125 L 3.570312 -9.246094 L 7.71875 -9.246094 L 7.71875 -11.558594 L 1.019531 -11.558594 L 1.019531 0 L 7.71875 0 Z M 7.71875 -2.3125 "/></g></g></g><g fill="#0c0d0e" fill-opacity="1"><g transform="translate(36.283011, 13.09931)"><g><path d="M 7.546875 -4.640625 L 7.546875 -6.953125 L 3.570312 -6.953125 L 3.570312 -9.246094 L 7.71875 -9.246094 L 7.71875 -11.558594 L 1.019531 -11.558594 L 1.019531 0 L 3.570312 0 L 3.570312 -4.640625 Z M 7.546875 -4.640625 "/></g></g></g><g fill="#0c0d0e" fill-opacity="1"><g transform="translate(45.254632, 13.09931)"><g><path d="M 7.308594 -4.421875 L 4.386719 -4.421875 L 5.847656 -8.535156 Z M 11.628906 0 L 6.9375 -11.558594 L 4.777344 -11.558594 L 0.0859375 0 L 2.820312 0 L 3.65625 -2.328125 L 8.058594 -2.328125 L 8.890625 0 Z M 11.628906 0 "/></g></g></g><g fill="#0c0d0e" fill-opacity="1"><g transform="translate(57.369609, 13.09931)"><g><path d="M 3.570312 -5.167969 L 7.226562 0 L 10.660156 0 L 6.050781 -5.78125 L 10.488281 -11.558594 L 7.226562 -11.558594 L 3.570312 -6.390625 L 3.570312 -11.558594 L 1.019531 -11.558594 L 1.019531 0 L 3.570312 0 Z M 3.570312 -5.167969 "/></g></g></g><g fill="#0c0d0e" fill-opacity="1"><g transform="translate(68.261226, 13.09931)"><g><path d="M 7.71875 -2.3125 L 3.570312 -2.3125 L 3.570312 -4.640625 L 7.546875 -4.640625 L 7.546875 -6.953125 L 3.570312 -6.953125 L 3.570312 -9.246094 L 7.71875 -9.246094 L 7.71875 -11.558594 L 1.019531 -11.558594 L 1.019531 0 L 7.71875 0 Z M 7.71875 -2.3125 "/></g></g></g><g fill="#444446" fill-opacity="0.4"><g transform="translate(78.152354, 13.850842)"><g/></g></g><g fill="#0c0d0e" fill-opacity="1"><g transform="translate(77.400822, 13.09931)"><g/></g></g><g fill="#444446" fill-opacity="0.4"><g transform="translate(82.806985, 13.850842)"><g><path d="M 5.933594 -9.246094 L 9.230469 -9.246094 L 9.230469 -11.558594 L 0.0859375 -11.558594 L 0.0859375 -9.246094 L 3.382812 -9.246094 L 3.382812 0 L 5.933594 0 Z M 5.933594 -9.246094 "/></g></g></g><g fill="#444446" fill-opacity="0.4"><g transform="translate(92.526219, 13.850842)"><g><path d="M 15.4375 -11.558594 L 12.628906 -11.558594 L 11.269531 -3.585938 L 9.011719 -11.558594 L 6.511719 -11.558594 L 4.25 -3.585938 L 2.890625 -11.558594 L 0.0859375 -11.558594 L 2.328125 0 L 5.355469 0 L 7.769531 -8.109375 L 10.164062 0 L 13.191406 0 Z M 15.4375 -11.558594 "/></g></g></g><g fill="#444446" fill-opacity="0.4"><g transform="translate(108.447191, 13.850842)"><g><path d="M 7.71875 -2.3125 L 3.570312 -2.3125 L 3.570312 -4.640625 L 7.546875 -4.640625 L 7.546875 -6.953125 L 3.570312 -6.953125 L 3.570312 -9.246094 L 7.71875 -9.246094 L 7.71875 -11.558594 L 1.019531 -11.558594 L 1.019531 0 L 7.71875 0 Z M 7.71875 -2.3125 "/></g></g></g><g fill="#444446" fill-opacity="0.4"><g transform="translate(117.588731, 13.850842)"><g><path d="M 7.71875 -2.3125 L 3.570312 -2.3125 L 3.570312 -4.640625 L 7.546875 -4.640625 L 7.546875 -6.953125 L 3.570312 -6.953125 L 3.570312 -9.246094 L 7.71875 -9.246094 L 7.71875 -11.558594 L 1.019531 -11.558594 L 1.019531 0 L 7.71875 0 Z M 7.71875 -2.3125 "/></g></g></g><g fill="#444446" fill-opacity="0.4"><g transform="translate(126.730271, 13.850842)"><g><path d="M 5.933594 -9.246094 L 9.230469 -9.246094 L 9.230469 -11.558594 L 0.0859375 -11.558594 L 0.0859375 -9.246094 L 3.382812 -9.246094 L 3.382812 0 L 5.933594 0 Z M 5.933594 -9.246094 "/></g></g></g><g fill="#1d97e1" fill-opacity="1"><g transform="translate(82.055453, 13.09931)"><g><path d="M 5.933594 -9.246094 L 9.230469 -9.246094 L 9.230469 -11.558594 L 0.0859375 -11.558594 L 0.0859375 -9.246094 L 3.382812 -9.246094 L 3.382812 0 L 5.933594 0 Z M 5.933594 -9.246094 "/></g></g></g><g fill="#1d97e1" fill-opacity="1"><g transform="translate(91.774687, 13.09931)"><g><path d="M 15.4375 -11.558594 L 12.628906 -11.558594 L 11.269531 -3.585938 L 9.011719 -11.558594 L 6.511719 -11.558594 L 4.25 -3.585938 L 2.890625 -11.558594 L 0.0859375 -11.558594 L 2.328125 0 L 5.355469 0 L 7.769531 -8.109375 L 10.164062 0 L 13.191406 0 Z M 15.4375 -11.558594 "/></g></g></g><g fill="#1d97e1" fill-opacity="1"><g transform="translate(107.695659, 13.09931)"><g><path d="M 7.71875 -2.3125 L 3.570312 -2.3125 L 3.570312 -4.640625 L 7.546875 -4.640625 L 7.546875 -6.953125 L 3.570312 -6.953125 L 3.570312 -9.246094 L 7.71875 -9.246094 L 7.71875 -11.558594 L 1.019531 -11.558594 L 1.019531 0 L 7.71875 0 Z M 7.71875 -2.3125 "/></g></g></g><g fill="#1d97e1" fill-opacity="1"><g transform="translate(116.837199, 13.09931)"><g><path d="M 7.71875 -2.3125 L 3.570312 -2.3125 L 3.570312 -4.640625 L 7.546875 -4.640625 L 7.546875 -6.953125 L 3.570312 -6.953125 L 3.570312 -9.246094 L 7.71875 -9.246094 L 7.71875 -11.558594 L 1.019531 -11.558594 L 1.019531 0 L 7.71875 0 Z M 7.71875 -2.3125 "/></g></g></g><g fill="#1d97e1" fill-opacity="1"><g transform="translate(125.978739, 13.09931)"><g><path d="M 5.933594 -9.246094 L 9.230469 -9.246094 L 9.230469 -11.558594 L 0.0859375 -11.558594 L 0.0859375 -9.246094 L 3.382812 -9.246094 L 3.382812 0 L 5.933594 0 Z M 5.933594 -9.246094 "/></g></g></g><g fill="#444446" fill-opacity="0.4"><g transform="translate(36.991626, 27.1346)"><g><path d="M 6.414062 -8.816406 C 7.46875 -8.816406 8.5625 -8.382812 9.089844 -7.230469 L 11.734375 -7.230469 C 10.980469 -9.492188 8.816406 -11.0625 6.414062 -11.0625 C 3.335938 -11.0625 0.800781 -8.527344 0.800781 -5.449219 C 0.800781 -2.371094 3.335938 0.160156 6.414062 0.160156 C 9.523438 0.160156 12.007812 -2.355469 12.007812 -5.449219 L 12.007812 -5.820312 L 6.636719 -5.820312 L 6.636719 -4.007812 L 9.410156 -4.007812 C 8.816406 -2.355469 7.46875 -2.019531 6.414062 -2.019531 C 4.679688 -2.019531 3.238281 -3.574219 3.238281 -5.417969 C 3.238281 -7.261719 4.679688 -8.816406 6.414062 -8.816406 Z M 6.414062 -8.816406 "/></g></g></g><g fill="#444446" fill-opacity="0.4"><g transform="translate(50.772898, 27.1346)"><g><path d="M 7.277344 -2.179688 L 3.367188 -2.179688 L 3.367188 -4.375 L 7.117188 -4.375 L 7.117188 -6.558594 L 3.367188 -6.558594 L 3.367188 -8.722656 L 7.277344 -8.722656 L 7.277344 -10.902344 L 0.960938 -10.902344 L 0.960938 0 L 7.277344 0 Z M 7.277344 -2.179688 "/></g></g></g><g fill="#444446" fill-opacity="0.4"><g transform="translate(60.22774, 27.1346)"><g><path d="M 9.523438 0 L 9.523438 -10.902344 L 7.117188 -10.902344 L 7.117188 -4.105469 L 3.367188 -10.902344 L 0.960938 -10.902344 L 0.960938 0 L 3.367188 0 L 3.367188 -6.796875 L 7.117188 0 Z M 9.523438 0 "/></g></g></g><g fill="#444446" fill-opacity="0.4"><g transform="translate(71.925909, 27.1346)"><g><path d="M 7.277344 -2.179688 L 3.367188 -2.179688 L 3.367188 -4.375 L 7.117188 -4.375 L 7.117188 -6.558594 L 3.367188 -6.558594 L 3.367188 -8.722656 L 7.277344 -8.722656 L 7.277344 -10.902344 L 0.960938 -10.902344 L 0.960938 0 L 7.277344 0 Z M 7.277344 -2.179688 "/></g></g></g><g fill="#444446" fill-opacity="0.4"><g transform="translate(81.380752, 27.1346)"><g><path d="M 3.367188 -3.894531 L 3.382812 -3.894531 L 5.980469 0 L 9.027344 0 L 5.898438 -4.007812 C 7.277344 -4.34375 8.382812 -5.5625 8.382812 -7.40625 C 8.382812 -9.472656 6.8125 -10.902344 5.050781 -10.902344 L 0.960938 -10.902344 L 0.960938 0 L 3.367188 0 Z M 4.648438 -9.007812 C 5.355469 -9.007812 6.09375 -8.398438 6.09375 -7.40625 C 6.09375 -6.363281 5.355469 -5.789062 4.648438 -5.789062 L 3.367188 -5.789062 L 3.367188 -9.007812 Z M 4.648438 -9.007812 "/></g></g></g><g fill="#444446" fill-opacity="0.4"><g transform="translate(91.428471, 27.1346)"><g><path d="M 6.894531 -4.167969 L 4.136719 -4.167969 L 5.515625 -8.046875 Z M 10.964844 0 L 6.539062 -10.902344 L 4.503906 -10.902344 L 0.0820312 0 L 2.660156 0 L 3.445312 -2.195312 L 7.597656 -2.195312 L 8.382812 0 Z M 10.964844 0 "/></g></g></g><g fill="#444446" fill-opacity="0.4"><g transform="translate(103.687478, 27.1346)"><g><path d="M 5.59375 -8.722656 L 8.703125 -8.722656 L 8.703125 -10.902344 L 0.0820312 -10.902344 L 0.0820312 -8.722656 L 3.191406 -8.722656 L 3.191406 0 L 5.59375 0 Z M 5.59375 -8.722656 "/></g></g></g><g fill="#444446" fill-opacity="0.4"><g transform="translate(113.68713, 27.1346)"><g><path d="M 9.378906 -5.464844 C 9.378906 -3.785156 7.855469 -2.246094 6.171875 -2.246094 C 4.488281 -2.246094 2.964844 -3.785156 2.964844 -5.464844 C 2.964844 -7.148438 4.488281 -8.671875 6.171875 -8.671875 C 7.855469 -8.671875 9.378906 -7.148438 9.378906 -5.464844 Z M 11.78125 -5.449219 C 11.78125 -8.464844 9.1875 -11.0625 6.171875 -11.0625 C 3.15625 -11.0625 0.5625 -8.464844 0.5625 -5.449219 C 0.5625 -2.4375 3.15625 0.160156 6.171875 0.160156 C 9.1875 0.160156 11.78125 -2.4375 11.78125 -5.449219 Z M 11.78125 -5.449219 "/></g></g></g><g fill="#444446" fill-opacity="0.4"><g transform="translate(127.244071, 27.1346)"><g><path d="M 3.367188 -3.894531 L 3.382812 -3.894531 L 5.980469 0 L 9.027344 0 L 5.898438 -4.007812 C 7.277344 -4.34375 8.382812 -5.5625 8.382812 -7.40625 C 8.382812 -9.472656 6.8125 -10.902344 5.050781 -10.902344 L 0.960938 -10.902344 L 0.960938 0 L 3.367188 0 Z M 4.648438 -9.007812 C 5.355469 -9.007812 6.09375 -8.398438 6.09375 -7.40625 C 6.09375 -6.363281 5.355469 -5.789062 4.648438 -5.789062 L 3.367188 -5.789062 L 3.367188 -9.007812 Z M 4.648438 -9.007812 "/></g></g></g><g fill="#0c0d0e" fill-opacity="1"><g transform="translate(36.283011, 26.425986)"><g><path d="M 6.414062 -8.816406 C 7.46875 -8.816406 8.5625 -8.382812 9.089844 -7.230469 L 11.734375 -7.230469 C 10.980469 -9.492188 8.816406 -11.0625 6.414062 -11.0625 C 3.335938 -11.0625 0.800781 -8.527344 0.800781 -5.449219 C 0.800781 -2.371094 3.335938 0.160156 6.414062 0.160156 C 9.523438 0.160156 12.007812 -2.355469 12.007812 -5.449219 L 12.007812 -5.820312 L 6.636719 -5.820312 L 6.636719 -4.007812 L 9.410156 -4.007812 C 8.816406 -2.355469 7.46875 -2.019531 6.414062 -2.019531 C 4.679688 -2.019531 3.238281 -3.574219 3.238281 -5.417969 C 3.238281 -7.261719 4.679688 -8.816406 6.414062 -8.816406 Z M 6.414062 -8.816406 "/></g></g></g><g fill="#0c0d0e" fill-opacity="1"><g transform="translate(50.064284, 26.425986)"><g><path d="M 7.277344 -2.179688 L 3.367188 -2.179688 L 3.367188 -4.375 L 7.117188 -4.375 L 7.117188 -6.558594 L 3.367188 -6.558594 L 3.367188 -8.722656 L 7.277344 -8.722656 L 7.277344 -10.902344 L 0.960938 -10.902344 L 0.960938 0 L 7.277344 0 Z M 7.277344 -2.179688 "/></g></g></g><g fill="#0c0d0e" fill-opacity="1"><g transform="translate(59.519125, 26.425986)"><g><path d="M 9.523438 0 L 9.523438 -10.902344 L 7.117188 -10.902344 L 7.117188 -4.105469 L 3.367188 -10.902344 L 0.960938 -10.902344 L 0.960938 0 L 3.367188 0 L 3.367188 -6.796875 L 7.117188 0 Z M 9.523438 0 "/></g></g></g><g fill="#0c0d0e" fill-opacity="1"><g transform="translate(71.217294, 26.425986)"><g><path d="M 7.277344 -2.179688 L 3.367188 -2.179688 L 3.367188 -4.375 L 7.117188 -4.375 L 7.117188 -6.558594 L 3.367188 -6.558594 L 3.367188 -8.722656 L 7.277344 -8.722656 L 7.277344 -10.902344 L 0.960938 -10.902344 L 0.960938 0 L 7.277344 0 Z M 7.277344 -2.179688 "/></g></g></g><g fill="#0c0d0e" fill-opacity="1"><g transform="translate(80.672137, 26.425986)"><g><path d="M 3.367188 -3.894531 L 3.382812 -3.894531 L 5.980469 0 L 9.027344 0 L 5.898438 -4.007812 C 7.277344 -4.34375 8.382812 -5.5625 8.382812 -7.40625 C 8.382812 -9.472656 6.8125 -10.902344 5.050781 -10.902344 L 0.960938 -10.902344 L 0.960938 0 L 3.367188 0 Z M 4.648438 -9.007812 C 5.355469 -9.007812 6.09375 -8.398438 6.09375 -7.40625 C 6.09375 -6.363281 5.355469 -5.789062 4.648438 -5.789062 L 3.367188 -5.789062 L 3.367188 -9.007812 Z M 4.648438 -9.007812 "/></g></g></g><g fill="#0c0d0e" fill-opacity="1"><g transform="translate(90.719856, 26.425986)"><g><path d="M 6.894531 -4.167969 L 4.136719 -4.167969 L 5.515625 -8.046875 Z M 10.964844 0 L 6.539062 -10.902344 L 4.503906 -10.902344 L 0.0820312 0 L 2.660156 0 L 3.445312 -2.195312 L 7.597656 -2.195312 L 8.382812 0 Z M 10.964844 0 "/></g></g></g><g fill="#0c0d0e" fill-opacity="1"><g transform="translate(102.978863, 26.425986)"><g><path d="M 5.59375 -8.722656 L 8.703125 -8.722656 L 8.703125 -10.902344 L 0.0820312 -10.902344 L 0.0820312 -8.722656 L 3.191406 -8.722656 L 3.191406 0 L 5.59375 0 Z M 5.59375 -8.722656 "/></g></g></g><g fill="#0c0d0e" fill-opacity="1"><g transform="translate(112.978515, 26.425986)"><g><path d="M 9.378906 -5.464844 C 9.378906 -3.785156 7.855469 -2.246094 6.171875 -2.246094 C 4.488281 -2.246094 2.964844 -3.785156 2.964844 -5.464844 C 2.964844 -7.148438 4.488281 -8.671875 6.171875 -8.671875 C 7.855469 -8.671875 9.378906 -7.148438 9.378906 -5.464844 Z M 11.78125 -5.449219 C 11.78125 -8.464844 9.1875 -11.0625 6.171875 -11.0625 C 3.15625 -11.0625 0.5625 -8.464844 0.5625 -5.449219 C 0.5625 -2.4375 3.15625 0.160156 6.171875 0.160156 C 9.1875 0.160156 11.78125 -2.4375 11.78125 -5.449219 Z M 11.78125 -5.449219 "/></g></g></g><g fill="#0c0d0e" fill-opacity="1"><g transform="translate(126.535457, 26.425986)"><g><path d="M 3.367188 -3.894531 L 3.382812 -3.894531 L 5.980469 0 L 9.027344 0 L 5.898438 -4.007812 C 7.277344 -4.34375 8.382812 -5.5625 8.382812 -7.40625 C 8.382812 -9.472656 6.8125 -10.902344 5.050781 -10.902344 L 0.960938 -10.902344 L 0.960938 0 L 3.367188 0 Z M 4.648438 -9.007812 C 5.355469 -9.007812 6.09375 -8.398438 6.09375 -7.40625 C 6.09375 -6.363281 5.355469 -5.789062 4.648438 -5.789062 L 3.367188 -5.789062 L 3.367188 -9.007812 Z M 4.648438 -9.007812 "/></g></g></g></svg>