<svg xmlns="http://www.w3.org/2000/svg" xmlns:xlink="http://www.w3.org/1999/xlink" width="100" zoomAndPan="magnify" viewBox="0 0 75 74.999997" height="100" preserveAspectRatio="xMidYMid meet" version="1.0"><defs><clipPath id="5505c5a502"><path d="M 2 2 L 73.25 2 L 73.25 73 L 2 73 Z M 2 2 " clip-rule="nonzero"/></clipPath><clipPath id="31c00bdf55"><path d="M 23 15 L 54 15 L 54 73.25 L 23 73.25 Z M 23 15 " clip-rule="nonzero"/></clipPath></defs><g clip-path="url(#5505c5a502)"><path fill="#1877f2" d="M 73.25 37.625 C 73.25 17.949219 57.300781 2 37.625 2 C 17.949219 2 2 17.949219 2 37.625 C 2 55.40625 15.027344 70.144531 32.058594 72.816406 L 32.058594 47.921875 L 23.011719 47.921875 L 23.011719 37.625 L 32.058594 37.625 L 32.058594 29.777344 C 32.058594 20.847656 37.378906 15.914062 45.515625 15.914062 C 49.414062 15.914062 53.488281 16.613281 53.488281 16.613281 L 53.488281 25.378906 L 48.996094 25.378906 C 44.570312 25.378906 43.191406 28.125 43.191406 30.941406 L 43.191406 37.625 L 53.070312 37.625 L 51.492188 47.921875 L 43.191406 47.921875 L 43.191406 72.816406 C 60.222656 70.144531 73.25 55.40625 73.25 37.625 " fill-opacity="1" fill-rule="nonzero"/></g><g clip-path="url(#31c00bdf55)"><path fill="#ffffff" d="M 51.492188 47.921875 L 53.070312 37.625 L 43.191406 37.625 L 43.191406 30.941406 C 43.191406 28.125 44.570312 25.378906 48.996094 25.378906 L 53.488281 25.378906 L 53.488281 16.613281 C 53.488281 16.613281 49.414062 15.914062 45.515625 15.914062 C 37.378906 15.914062 32.058594 20.847656 32.058594 29.777344 L 32.058594 37.625 L 23.011719 37.625 L 23.011719 47.921875 L 32.058594 47.921875 L 32.058594 72.816406 C 33.871094 73.101562 35.730469 73.25 37.625 73.25 C 39.519531 73.25 41.378906 73.101562 43.191406 72.816406 L 43.191406 47.921875 L 51.492188 47.921875 " fill-opacity="1" fill-rule="nonzero"/></g></svg>